<?xml version="1.0" encoding="UTF-8"?><svg version="1.1" width="485px" height="350px" viewBox="0 0 485.0 350.0" xmlns="http://www.w3.org/2000/svg" xmlns:xlink="http://www.w3.org/1999/xlink"><defs><clipPath id="i0"><path d="M1920,0 L1920,5282 L0,5282 L0,0 L1920,0 Z"></path></clipPath><clipPath id="i1"><path d="M86.8794032,0 C75.3836588,8.20239344 69.6357865,20.0956369 69.6357865,35.6797302 C69.6357865,51.2638236 75.3836588,63.0480331 86.8794032,71.0323588 L0,71.0323588 C12.1624111,63.0029019 18.2436167,51.2186924 18.2436167,35.6797302 C18.2436167,20.065906 12.1624111,8.17266261 0,0 L86.8794032,0 Z"></path></clipPath><linearGradient id="i2" x1="43.4397016px" y1="0px" x2="43.4397016px" y2="71.0323588px" gradientUnits="userSpaceOnUse"><stop stop-color="#06AEF9" offset="0%"></stop><stop stop-color="#06ABF9" offset="100%"></stop></linearGradient><clipPath id="i3"><path d="M86.8794032,0 C74.7169921,8.20239344 68.6357865,20.0956369 68.6357865,35.6797302 C68.6357865,51.2638236 74.7169921,63.0480331 86.8794032,71.0323588 L0,71.0323588 C12.1624111,63.0029019 18.2436167,51.2186924 18.2436167,35.6797302 C18.2436167,20.065906 12.1624111,8.17266261 0,0 L86.8794032,0 Z"></path></clipPath><linearGradient id="i4" x1="43.4397016px" y1="0.736363095px" x2="43.4397016px" y2="71.0323588px" gradientUnits="userSpaceOnUse"><stop stop-color="#01D4FD" offset="0%"></stop><stop stop-color="#01D1FE" offset="100%"></stop></linearGradient><clipPath id="i5"><path d="M86.8794032,0 C75.071519,9.53761973 69.1675769,22.177611 69.1675769,37.9199738 C69.1675769,53.6623366 75.071519,64.9402624 86.8794032,71.7537514 L0,71.7537514 C12.3965159,62.7038056 18.5947739,50.3304461 18.5947739,34.6336728 C18.5947739,18.8612773 12.3965159,7.31671966 0,0 L86.8794032,0 Z"></path></clipPath><linearGradient id="i6" x1="43.4397016px" y1="0.0851728876px" x2="43.4397016px" y2="71.3197214px" gradientUnits="userSpaceOnUse"><stop stop-color="#04BBFB" offset="0%"></stop><stop stop-color="#05B7FB" offset="100%"></stop></linearGradient><clipPath id="i7"><path d="M86.8794032,0 C74.4828873,9.22463869 68.2846293,21.7081394 68.2846293,37.4505022 C68.2846293,53.192865 74.4828873,64.6272814 86.8794032,71.7537514 L0,71.7537514 C12.3965159,62.7038056 18.5947739,50.3304461 18.5947739,34.6336728 C18.5947739,18.8612773 12.3965159,7.31671966 0,0 L86.8794032,0 Z"></path></clipPath><linearGradient id="i8" x1="43.4397016px" y1="0px" x2="43.4397016px" y2="71.7537514px" gradientUnits="userSpaceOnUse"><stop stop-color="#01C9FC" offset="0%"></stop><stop stop-color="#01CAFC" offset="100%"></stop></linearGradient><clipPath id="i9"><path d="M85.6773418,192.310761 L133.212975,219.647184 C141.109393,224.188194 145.977167,232.602801 145.977167,241.711818 L145.977167,296.210628 C145.977167,305.319644 141.109393,313.734251 133.212975,318.275262 L85.6773418,345.611684 C77.8213642,350.129439 68.1558029,350.129439 60.2998253,345.611684 L12.7641919,318.275262 C4.86777422,313.734251 6.87450097e-13,305.319644 6.91002811e-13,296.210628 L6.8567374e-13,241.711818 C6.91002811e-13,232.602801 4.86777422,224.188194 12.7641919,219.647184 L60.2998253,192.310761 C68.1558029,187.793007 77.8213642,187.793007 85.6773418,192.310761 Z M422.797169,192.310761 L470.332802,219.647184 C478.22922,224.188194 483.096994,232.602801 483.096994,241.711818 L483.096994,296.210628 C483.096994,305.319644 478.22922,313.734251 470.332802,318.275262 L422.797169,345.611684 C414.941191,350.129439 405.27563,350.129439 397.419652,345.611684 L349.884019,318.275262 C341.987601,313.734251 337.119827,305.319644 337.119827,296.210628 L337.119827,241.711818 C337.119827,232.602801 341.987601,224.188194 349.884019,219.647184 L397.419652,192.310761 C405.27563,187.793007 414.941191,187.793007 422.797169,192.310761 Z M254.237255,91.3374395 L301.772889,118.673862 C309.669306,123.214872 314.537081,131.629479 314.537081,140.738496 L314.537081,195.237306 C314.537081,204.346323 309.669306,212.76093 301.772889,217.30194 L254.237255,244.638362 C246.381278,249.156117 236.715716,249.156117 228.859739,244.638362 L181.324105,217.30194 C173.427688,212.76093 168.559913,204.346323 168.559913,195.237306 L168.559913,140.738496 C168.559913,131.629479 173.427688,123.214872 181.324105,118.673862 L228.859739,91.3374395 C236.715716,86.819685 246.381278,86.819685 254.237255,91.3374395 Z M85.6773418,3.38831588 L133.212975,30.7247382 C141.109393,35.2657487 145.977167,43.6803556 145.977167,52.7893725 L145.977167,107.288182 C145.977167,116.397199 141.109393,124.811806 133.212975,129.352816 L85.6773418,156.689239 C77.8213642,161.206993 68.1558029,161.206993 60.2998253,156.689239 L12.7641919,129.352816 C4.86777422,124.811806 6.75015599e-13,116.397199 6.91002811e-13,107.288182 L6.8567374e-13,52.7893725 C6.98108238e-13,43.6803556 4.86777422,35.2657487 12.7641919,30.7247382 L60.2998253,3.38831588 C68.1558029,-1.12943863 77.8213642,-1.12943863 85.6773418,3.38831588 Z M422.797169,3.38831588 L470.332802,30.7247382 C478.22922,35.2657487 483.096994,43.6803556 483.096994,52.7893725 L483.096994,107.288182 C483.096994,116.397199 478.22922,124.811806 470.332802,129.352816 L422.797169,156.689239 C414.941191,161.206993 405.27563,161.206993 397.419652,156.689239 L349.884019,129.352816 C341.987601,124.811806 337.119827,116.397199 337.119827,107.288182 L337.119827,52.7893725 C337.119827,43.6803556 341.987601,35.2657487 349.884019,30.7247382 L397.419652,3.38831588 C405.27563,-1.12943863 414.941191,-1.12943863 422.797169,3.38831588 Z"></path></clipPath><clipPath id="i10"><path d="M492.234705,0 L492.234705,377.28244 L0,377.28244 L0,0 L492.234705,0 Z"></path></clipPath><linearGradient id="i11" x1="28.0939402px" y1="36.8042088px" x2="477.288585px" y2="345.028901px" gradientUnits="userSpaceOnUse"><stop stop-color="#00E4FF" offset="0.0908271416%"></stop><stop stop-color="#06A9F9" offset="78.100968%"></stop><stop stop-color="#0066FF" offset="100%"></stop></linearGradient></defs><g transform="translate(-718.0 -531.0)"><g clip-path="url(#i0)"><g transform="translate(718.9515030091785 531.5000000000007)"><g transform="translate(366.66870883037154 139.0018210836456)"><g clip-path="url(#i1)"><polygon points="0,0 86.8794032,0 86.8794032,71.0323588 0,71.0323588 0,0" stroke="none" fill="url(#i2)" opacity="50%"></polygon></g></g><g transform="translate(29.548881948370756 139.0018210836456)"><g clip-path="url(#i3)"><polygon points="0,0 86.8794032,0 86.8794032,71.0323588 0,71.0323588 0,0" stroke="none" fill="url(#i4)" opacity="50%"></polygon></g></g><g transform="translate(337.1274165910788 68.83655529573562) rotate(62.0)"><g clip-path="url(#i5)"><polygon points="-9.09494702e-13,1.8189894e-12 86.8794032,1.8189894e-12 86.8794032,71.7537514 -9.09494702e-13,71.7537514 -9.09494702e-13,1.8189894e-12" stroke="none" fill="url(#i6)" opacity="50%"></polygon></g></g><g transform="translate(145.98484382492683 68.83655529572061) rotate(-62.0) scale(-1.0 1.0)"><g clip-path="url(#i7)"><polygon points="0,0 86.8794032,0 86.8794032,71.7537514 0,71.7537514 0,0" stroke="none" fill="url(#i8)" opacity="50%"></polygon></g></g><g clip-path="url(#i9)"><polygon points="6.8567374e-13,-1.10578213e-13 483.096994,-1.10578213e-13 483.096994,349 6.8567374e-13,349 6.8567374e-13,-1.10578213e-13" stroke="none" fill="#1B1212"></polygon><g transform="translate(-4.56885550525476 -16.34581582056944)"><g clip-path="url(#i10)"><polygon points="4.56885551,16.3458158 487.665849,16.3458158 487.665849,365.345816 4.56885551,365.345816 4.56885551,16.3458158" stroke="none" fill="url(#i11)"></polygon></g></g></g></g></g></g></svg>